<svg width="78" height="63" viewBox="0 0 78 63" fill="none" xmlns="http://www.w3.org/2000/svg">
<path d="M53.2247 62.4575C53.0363 62.3667 51.187 60.4115 49.1151 58.1126L45.348 53.9327L44.0431 53.8324C41.2805 53.6201 39.1108 52.8402 37.6644 51.5398L36.8895 50.8431L35.0627 51.1028C32.8869 51.4122 29.6433 51.3349 28.2066 50.9394C27.0357 50.617 25.2974 49.8127 24.4387 49.1961L23.762 48.7101L25.0031 47.4012C27.5248 44.7418 29.0709 41.241 29.5194 37.1752C29.7227 35.3322 29.5207 33.5068 28.9977 32.4534C28.4064 31.263 26.9747 30.7683 25.7723 31.3388C24.6249 31.8833 24.2302 32.942 24.5924 34.5036C24.7885 35.3492 24.8018 35.747 24.6674 36.7562C23.9609 42.0654 21.4872 45.1052 17.0359 46.1341C15.4158 46.5086 12.7061 46.5071 11.4505 46.1312C9.19571 45.4558 7.09953 43.8697 5.6865 41.7696C5.28662 41.1752 4.63241 40.2791 4.23271 39.7782C0.206365 34.7324 -0.685648 28.9297 1.7267 23.4762L2.03789 22.7727L2.68859 24.0692C4.6156 27.9088 8.17782 30.8608 12.3374 32.0651C13.971 32.5381 15.9312 32.7168 16.7005 32.4629C18.2666 31.9461 18.8101 29.8726 17.7085 28.6179C17.1527 27.9849 16.7739 27.8463 15.0735 27.6535C12.7976 27.3956 10.884 26.4418 9.09337 24.673C6.90575 22.512 5.86425 19.8527 6.24261 17.394C6.6347 14.846 9.22397 11.2902 12.4045 8.93206C14.5269 7.35838 18.3221 5.67224 20.4574 5.35424C21.8965 5.13994 23.8039 5.85303 25.1967 7.12597C26.2871 8.12254 26.7112 8.975 26.8069 10.3624C26.9327 12.1881 27.7684 13.1295 29.2633 13.1295C30.259 13.1295 30.9448 12.6984 31.4264 11.7697C31.7382 11.1684 31.7681 10.9548 31.69 9.88397C31.5102 7.41704 30.4908 5.34204 28.5815 3.55608C28.1569 3.15891 27.8309 2.81352 27.8571 2.78854C27.9693 2.68148 29.9948 2.0599 31.5277 1.66209C37.1643 0.199295 43.2478 0.0165955 48.4024 1.15531L49.4267 1.38161L48.0752 2.65384C47.3319 3.35356 46.3847 4.3835 45.9703 4.94259C44.1494 7.39968 42.8663 10.5658 42.3161 13.9598C42.0673 15.4944 42.0996 18.8607 42.3691 19.4914C43.1844 21.3987 45.759 21.563 46.7211 19.7691C46.9491 19.3439 47.0006 18.9107 47.0006 17.4161C47.0006 14.6082 47.6117 11.8818 48.7416 9.6486C49.6278 7.89705 51.4566 6.19513 53.6659 5.06591C55.8658 3.94149 56.8794 4.07923 59.6225 5.87542C62.0693 7.47756 62.4589 9.04152 61.07 11.6863C60.2719 13.206 58.959 14.4877 57.7583 14.9193C56.591 15.3388 56.0448 15.9752 55.943 17.0341C55.8916 17.5698 55.9545 17.9146 56.1876 18.3711C56.8885 19.7451 58.4826 20.0258 60.3644 19.1065C62.7725 17.9301 64.7842 15.5869 66.0604 12.4722L66.5462 11.2865L68.0573 12.8498C68.8885 13.7096 70.1799 15.1553 70.9271 16.0625C71.6743 16.9697 72.7512 18.2263 73.3203 18.855C78.3299 24.3899 78.9869 30.6581 75.1374 36.1929L74.4779 37.1412L75.0099 37.9424C75.3025 38.3831 75.6842 39.1111 75.8581 39.5603C76.2591 40.5961 76.4003 42.9358 76.1418 44.2619C75.3333 48.4102 71.4249 52.8088 66.4562 55.1625C65.0267 55.8397 62.7503 56.6477 61.736 56.838C61.4359 56.8943 61.1916 57.0177 61.193 57.1122C61.1943 57.2068 61.3291 57.7936 61.4923 58.4163C62.0433 60.5183 61.8123 61.6645 60.7012 62.3419C60.2482 62.6181 59.9461 62.6411 56.8882 62.6322C54.8142 62.6263 53.4385 62.5606 53.2246 62.4575L53.2247 62.4575ZM59.4034 47.1549C59.9562 46.8725 60.4027 46.2671 60.6036 45.5276C60.8418 44.6505 60.678 42.5305 60.2847 41.4001C59.6457 39.5635 57.8294 37.3012 55.7899 35.8017C55.1307 35.317 54.8697 35.0345 54.9318 34.8729C55.6962 32.8831 55.9723 29.6647 55.5439 27.7392C55.1496 25.9669 54.4042 24.5777 53.2029 23.3764C52.1847 22.3582 50.9068 21.5877 50.231 21.5845C48.8952 21.5783 47.7554 22.6931 47.7554 24.0058C47.7554 24.9248 48.1434 25.5954 49.0361 26.2192C49.4702 26.5226 49.9816 26.9989 50.1727 27.2777C50.6074 27.9121 50.9263 29.115 50.9229 30.1072C50.9204 30.8083 50.5615 32.8662 50.4163 33.0114C50.3816 33.0461 49.8197 32.963 49.1675 32.8269C47.7447 32.5299 45.3054 32.4909 44.057 32.7452C42.5468 33.0528 40.7626 34.0046 39.6952 35.0721C38.681 36.0863 37.9413 37.3691 37.9466 38.1046C37.9517 38.8237 38.456 39.7679 39.0199 40.1146C40.3414 40.927 41.5396 40.6079 42.6359 39.1515C43.5465 37.9418 44.3851 37.5281 46.0745 37.4554C47.637 37.3881 49.0213 37.6979 50.7509 38.502C53.041 39.5667 54.7425 41.0203 55.4787 42.5411C55.7449 43.0909 55.8235 43.5314 55.8387 44.5573C55.8562 45.7351 55.9001 45.9248 56.2661 46.4047C57.0838 47.4767 58.2347 47.7519 59.4034 47.1549V47.1549ZM64.8414 31.1576C65.9372 30.944 67.0185 30.6736 67.2443 30.5568C68.1623 30.0822 68.6794 28.9087 68.4384 27.8477C68.2668 27.0926 67.3267 26.1721 66.5849 26.0329C65.9276 25.9096 61.6429 26.7505 60.9951 27.1299C60.3105 27.5308 59.9488 28.1187 59.8678 28.9615C59.8077 29.587 59.8626 29.8372 60.1842 30.3848C60.9193 31.6392 61.7039 31.7694 64.8414 31.1576ZM40.0103 27.9257C40.4788 27.761 41.0293 27.4723 41.2336 27.2841C42.0605 26.5226 42.2619 25.1581 41.6758 24.2884C40.9485 23.2091 39.8144 22.8331 38.6053 23.2704C37.8592 23.5401 37.1015 23.2457 36.2084 22.3389L35.4561 21.5751L35.8554 20.862C36.8333 19.1161 37.0006 16.924 36.2687 15.4475C35.3689 13.6324 32.8937 13.628 31.9567 15.4399C31.7788 15.7839 31.7381 16.1576 31.7984 16.8937C31.8573 17.6128 31.8156 18.0206 31.6462 18.3804C30.9723 19.8122 27.8506 21.1978 25.943 20.9117C25.4223 20.8336 25.0649 20.6433 24.5051 20.1462C23.4373 19.1978 22.4979 19.0883 21.361 19.7797C20.8238 20.1064 20.2901 21.0966 20.2848 21.7765C20.2759 22.8197 21.4391 24.2657 22.8683 24.9899C24.975 26.0575 28.0887 26.0513 30.7394 24.9742L31.6138 24.6189L32.7029 25.7189C34.453 27.4864 35.9821 28.2103 37.9848 28.2196C38.7802 28.2234 39.433 28.1286 40.0103 27.9257V27.9257Z" fill="url(#paint0_linear_1721_900)"/>
<defs>
<linearGradient id="paint0_linear_1721_900" x1="39.0066" y1="0.416016" x2="39.0066" y2="62.6337" gradientUnits="userSpaceOnUse">
<stop stop-color="#DCAD55"/>
<stop offset="0.0001" stop-color="#DCAD55"/>
<stop offset="1" stop-color="#8C6E34"/>
</linearGradient>
</defs>
</svg>
