<svg width="28" height="27" viewBox="0 0 28 27" fill="none" xmlns="http://www.w3.org/2000/svg">
<path d="M23.1665 4.30844C20.9401 2.17482 17.9799 0.999881 14.8315 1C14.3155 1 13.8975 1.40076 13.8975 1.89508C13.8975 2.3894 14.3156 2.79015 14.8315 2.79015C17.481 2.79003 19.972 3.7788 21.8456 5.57432C23.7193 7.36984 24.7511 9.75719 24.751 12.2965C24.751 12.7908 25.169 13.1915 25.6849 13.1915C26.2008 13.1915 26.6189 12.7908 26.6189 12.2966C26.6191 9.27898 25.393 6.44207 23.1665 4.30844Z" fill="#1C1C1C" stroke="black" stroke-width="1.2"/>
<path d="M19.3245 12.295C19.3245 12.7894 19.7426 13.1901 20.2586 13.19C20.7744 13.19 21.1924 12.7892 21.1924 12.2949C21.1922 8.93421 18.3387 6.1997 14.8316 6.19922C14.8315 6.19922 14.8316 6.19922 14.8315 6.19922C14.3156 6.19922 13.8976 6.59985 13.8975 7.09418C13.8975 7.5885 14.3155 7.98925 14.8313 7.98937C17.3086 7.98973 19.3242 9.92118 19.3245 12.295Z" fill="#1C1C1C" stroke="black" stroke-width="1.2"/>
<path d="M17.2578 16.8617C15.8342 16.791 15.1089 17.8057 14.7611 18.2931C14.4698 18.7011 14.5789 19.2581 15.0047 19.5372C15.4304 19.8164 16.0116 19.7118 16.3029 19.3038C16.7139 18.728 16.9001 18.6374 17.1526 18.6488C17.9609 18.7399 21.1446 20.9757 21.4634 21.6748C21.5434 21.8807 21.5404 22.0825 21.4546 22.328C21.1203 23.2786 20.567 23.9467 19.8542 24.2599C19.177 24.5574 18.3467 24.5304 17.4537 24.1822C14.1191 22.8797 11.2058 21.062 8.79486 18.7794C8.79386 18.7784 8.79286 18.7776 8.79199 18.7766C6.41517 16.4684 4.5219 13.6801 3.165 10.4893C2.80149 9.63278 2.77334 8.837 3.0838 8.18813C3.41057 7.505 4.10771 6.97476 5.09886 6.6548C5.3559 6.57221 5.56611 6.56959 5.77893 6.64549C6.51106 6.95208 8.84392 10.003 8.93807 10.7689C8.95152 11.02 8.85625 11.1983 8.25588 11.5914C7.82998 11.8702 7.72052 12.4272 8.01155 12.8354C8.30246 13.2435 8.88353 13.3483 9.30955 13.0695C9.81839 12.7365 10.8769 12.0434 10.8034 10.6744C10.7225 9.24444 7.81989 5.45754 6.43298 4.96883C5.81617 4.74852 5.16735 4.74471 4.50384 4.95809C3.01095 5.43988 1.93275 6.29892 1.3858 7.44223C0.855293 8.55141 0.872105 9.83829 1.43499 11.1644C2.88716 14.5791 4.91891 17.5669 7.47369 20.045C7.47992 20.0511 7.48627 20.0571 7.49275 20.0629C10.0768 22.5067 13.1909 24.4502 16.7492 25.8402C17.4618 26.1179 18.1636 26.257 18.8347 26.257C19.4665 26.257 20.0715 26.1338 20.6327 25.8873C21.8258 25.3632 22.7221 24.3301 23.2252 22.8984C23.4473 22.2637 23.4437 21.6422 23.2156 21.0538C22.7039 19.7211 18.7523 16.9395 17.2578 16.8617Z" fill="#1C1C1C" stroke="black" stroke-width="1.2"/>
</svg>
