<svg width="24" height="24" viewBox="0 0 24 24" fill="none" xmlns="http://www.w3.org/2000/svg">
<path d="M22.3152 3.6769L20.3216 1.68315C19.4107 0.77226 17.9287 0.772303 17.0178 1.68315C16.1602 2.54085 3.06095 15.6411 2.18555 16.5166C2.0923 16.6098 2.02983 16.7337 2.00757 16.8549L1.01078 22.2381C0.972153 22.4468 1.03867 22.6611 1.18876 22.8112C1.33902 22.9615 1.55343 23.0279 1.76188 22.9893L7.14453 21.9923C7.26892 21.9691 7.39121 21.9061 7.48291 21.8143L22.3152 6.9809C23.2282 6.0679 23.2283 4.59003 22.3152 3.6769ZM2.44895 21.5509L3.05193 18.2946L5.70507 20.9479L2.44895 21.5509ZM7.02718 20.447L3.55277 16.9724L16.2376 4.28659L19.712 7.76126L7.02718 20.447ZM21.4037 6.0694L20.6234 6.84976L17.149 3.37509L17.9293 2.59474C18.3375 2.18645 19.0018 2.1864 19.4101 2.59474L21.4037 4.58849C21.813 4.99776 21.813 5.66008 21.4037 6.0694Z" fill="#8C8C8C" stroke="#8C8C8C" stroke-width="0.6"/>
</svg>
