<svg width="29" height="21" viewBox="0 0 29 21" fill="none" xmlns="http://www.w3.org/2000/svg">
<path d="M25.7678 1.22656H3.23131C1.90352 1.22656 0.828125 2.29507 0.828125 3.59961V17.8379C0.828125 19.1502 1.91143 20.2109 3.23131 20.2109H25.7678C27.0845 20.2109 28.171 19.1547 28.171 17.8379V3.59961C28.171 2.29739 27.0999 1.22656 25.7678 1.22656ZM25.4312 2.80859C24.9403 3.29085 16.4906 11.5906 16.1989 11.8772C15.7449 12.3254 15.1415 12.5722 14.4996 12.5722C13.8576 12.5722 13.2542 12.3254 12.7987 11.8757C12.6025 11.6829 4.24614 3.47484 3.56786 2.80859H25.4312ZM2.43025 17.5159V3.92261L9.35344 10.723L2.43025 17.5159ZM3.56887 18.6289L10.4893 11.8387L11.6674 12.9958C12.4239 13.7429 13.4297 14.1542 14.4996 14.1542C15.5694 14.1542 16.5752 13.7429 17.3302 12.9973L18.5098 11.8387L25.4302 18.6289H3.56887ZM26.5689 17.5159L19.6457 10.723L26.5689 3.92261V17.5159Z" fill="#1C1C1C" stroke="black" stroke-width="1.2"/>
</svg>
