<svg width="17" height="18" viewBox="0 0 17 18" fill="none" xmlns="http://www.w3.org/2000/svg">
<path d="M13.5004 11.5908C12.6762 10.6987 11.6951 10.0382 10.6247 9.63835C11.7711 8.78364 12.5243 7.35322 12.5243 5.73576C12.5243 3.12447 10.5617 1 8.14941 1C5.7371 1 3.77452 3.12447 3.77452 5.73576C3.77452 7.35322 4.52768 8.78364 5.67411 9.63835C4.60374 10.0382 3.6227 10.6987 2.79848 11.5908C1.36919 13.138 0.582031 15.1951 0.582031 17.3832H1.76443C1.76443 13.5721 4.62872 10.4715 8.14941 10.4715C11.6701 10.4715 14.5344 13.5721 14.5344 17.3832H15.7168C15.7168 15.1951 14.9296 13.138 13.5004 11.5908ZM8.14941 9.19159C6.38908 9.19159 4.95692 7.64133 4.95692 5.73576C4.95692 3.83019 6.38908 2.27994 8.14941 2.27994C9.90974 2.27994 11.3419 3.83019 11.3419 5.73576C11.3419 7.64133 9.90974 9.19159 8.14941 9.19159Z" fill="#8C8C8C" stroke="#8C8C8C" stroke-width="0.7"/>
</svg>
