<svg width="21" height="21" viewBox="0 0 21 21" fill="none" xmlns="http://www.w3.org/2000/svg">
<path d="M16.7918 12.3887C16.3823 11.9624 15.8884 11.7344 15.365 11.7344C14.8458 11.7344 14.3477 11.9581 13.9214 12.3845L12.5875 13.7141C12.4778 13.655 12.368 13.6002 12.2625 13.5453C12.1105 13.4693 11.967 13.3975 11.8446 13.3216C10.5951 12.528 9.45964 11.4938 8.37059 10.1557C7.84295 9.48877 7.48837 8.92736 7.23088 8.35751C7.57702 8.04092 7.89782 7.71167 8.21019 7.39509C8.32838 7.2769 8.44657 7.15448 8.56476 7.03629C9.4512 6.14985 9.4512 5.0017 8.56476 4.11527L7.41239 2.9629C7.28154 2.83204 7.14646 2.69696 7.01983 2.56189C6.76656 2.30018 6.50063 2.03003 6.22625 1.77676C5.8168 1.37153 5.32715 1.15625 4.81217 1.15625C4.29719 1.15625 3.7991 1.37153 3.37698 1.77676C3.37276 1.78098 3.37276 1.78098 3.36854 1.7852L1.93336 3.23305C1.39305 3.77335 1.08491 4.43185 1.01737 5.19588C0.916062 6.42845 1.27908 7.5766 1.55767 8.32796C2.2415 10.1726 3.26301 11.8822 4.78684 13.7141C6.6357 15.9218 8.86024 17.6651 11.4014 18.8935C12.3722 19.3536 13.6681 19.8981 15.116 19.991C15.2046 19.9952 15.2975 19.9994 15.3819 19.9994C16.357 19.9994 17.1759 19.649 17.8175 18.9526C17.8217 18.9441 17.8302 18.9399 17.8344 18.9315C18.0539 18.6655 18.3071 18.4249 18.5731 18.1674C18.7546 17.9944 18.9403 17.8129 19.1218 17.6229C19.5397 17.1881 19.7592 16.6816 19.7592 16.1624C19.7592 15.639 19.5355 15.1367 19.1092 14.7145L16.7918 12.3887ZM18.3029 16.8335C18.2987 16.8335 18.2987 16.8378 18.3029 16.8335C18.1383 17.0108 17.9695 17.1712 17.7879 17.3485C17.5136 17.6102 17.235 17.8846 16.9733 18.1928C16.5469 18.6486 16.0446 18.8639 15.3861 18.8639C15.3228 18.8639 15.2553 18.8639 15.1919 18.8597C13.9383 18.7795 12.7732 18.2898 11.8995 17.8719C9.5103 16.7154 7.41239 15.0733 5.66906 12.9923C4.22965 11.2574 3.26724 9.6534 2.62984 7.93117C2.23728 6.88011 2.09376 6.06121 2.15708 5.28874C2.19929 4.79487 2.38924 4.38542 2.73959 4.03506L4.179 2.59566C4.38584 2.40148 4.60534 2.29596 4.82061 2.29596C5.08654 2.29596 5.30182 2.45636 5.4369 2.59144C5.44112 2.59566 5.44534 2.59988 5.44956 2.6041C5.70705 2.8447 5.95188 3.09375 6.20937 3.35968C6.34022 3.49476 6.4753 3.62984 6.61037 3.76913L7.76275 4.9215C8.21019 5.36894 8.21019 5.78262 7.76275 6.23006C7.64033 6.35247 7.52214 6.47488 7.39973 6.59307C7.04515 6.95609 6.70746 7.29378 6.34022 7.62303C6.33178 7.63147 6.32334 7.63569 6.31912 7.64414C5.9561 8.00715 6.02364 8.36173 6.09962 8.60233C6.10384 8.615 6.10806 8.62766 6.11228 8.64032C6.41198 9.36636 6.8341 10.0502 7.47571 10.8649L7.47993 10.8691C8.64496 12.3043 9.87331 13.4229 11.2283 14.2798C11.4014 14.3895 11.5787 14.4782 11.7475 14.5626C11.8995 14.6386 12.043 14.7103 12.1654 14.7863C12.1823 14.7947 12.1992 14.8074 12.216 14.8158C12.3596 14.8876 12.4946 14.9214 12.6339 14.9214C12.9843 14.9214 13.2038 14.7019 13.2755 14.6301L14.7192 13.1865C14.8627 13.043 15.0906 12.8699 15.3566 12.8699C15.6183 12.8699 15.8336 13.0345 15.9644 13.178C15.9686 13.1823 15.9686 13.1823 15.9729 13.1865L18.2987 15.5123C18.7335 15.9429 18.7335 16.3861 18.3029 16.8335Z" fill="#8C8C8C" stroke="#8C8C8C" stroke-width="0.7"/>
</svg>
