<svg width="26" height="19" viewBox="0 0 26 19" fill="none" xmlns="http://www.w3.org/2000/svg">
<path d="M3.10938 1H22.8906C24.0561 1 25 1.94978 25 3.10938V15.7656C25 16.9321 24.0491 17.875 22.8906 17.875H3.10938C1.95367 17.875 1 16.9361 1 15.7656V3.10938C1 1.95184 1.94017 1 3.10938 1ZM3.40478 2.40625C3.83575 2.83492 11.2524 10.2125 11.5084 10.4672C11.9069 10.8656 12.4366 11.085 13 11.085C13.5634 11.085 14.0931 10.8656 14.4929 10.4659C14.6651 10.2946 21.9999 2.99847 22.5952 2.40625H3.40478ZM23.5938 15.4794V3.39648L17.517 9.44125L23.5938 15.4794ZM22.5943 16.4688L16.5199 10.433L15.4859 11.4616C14.8219 12.1256 13.939 12.4913 13 12.4913C12.061 12.4913 11.1781 12.1256 10.5154 11.4629L9.48006 10.433L3.40567 16.4688H22.5943ZM2.40625 15.4794L8.48303 9.44125L2.40625 3.39648V15.4794Z" fill="#8C8C8C" stroke="#8C8C8C" stroke-width="0.4"/>
</svg>
